# AST/ASF file generated using VICON BodyLanguage
# -----------------------------------------------
:version 1.10
:name VICON
:units
  mass 1.0
  length 0.45
  angle deg
:documentation
   .ast/.asf automatically generated from VICON data using
   VICON BodyBuilder and BodyLanguage model FoxedUp or BRILLIANT.MOD
:root
   order TX TY TZ RX RY RZ
   axis XYZ
   position 0 0 0  
   orientation 0 -0 0 
:bonedata
  begin
     id 1 
     name lhipjoint
     direction 0.432694 -0.693742 0.575759 
     length 2.19277 
     axis 0 -0 0  XYZ
  end
  begin
     id 2 
     name lfemur
     direction 0.34202 -0.939693 0  
     length 6.69022  
     axis 0 -0 20  XYZ
    dof rx ry rz
    limits (-160.0 20.0)
           (-70.0 70.0)
           (-60.0 70.0)
  end
  begin
     id 3 
     name ltibia
     direction 0.34202 -0.939693 0   
     length 6.50337   
     axis 0 -0 20   XYZ
    dof rx
    limits (-10.0 170.0)
  end
  begin
     id 4 
     name lfoot
     direction 0.158999 -0.435969 0.885805   
     length 2.70564   
     axis -90 -1.13533e-015 20   XYZ
    dof rx rz
    limits (-45.0 90.0)
           (-70.0 20.0)
  end
  begin
     id 5 
     name ltoes
     direction -0.00592919 0.00964381 0.999936   
     length 1.29929   
     axis -90 -1.13533e-015 20   XYZ
    dof rx
    limits (-90.0 20.0)
  end
  begin
     id 6 
     name rhipjoint
     direction -0.414359 -0.700339 0.581234   
     length 2.17212  
     axis 0 -0 0  XYZ 
  end
  begin
     id 7 
     name rfemur
     direction -0.34202 -0.939693 0   
     length 7.17659   
     axis 0 -0 -20   XYZ
    dof rx ry rz
    limits (-160.0 20.0)
           (-70.0 70.0)
           (-70.0 60.0)
  end
  begin
     id 8 
     name rtibia
     direction -0.34202 -0.939693 0   
     length 6.36669   
     axis 0 -0 -20   XYZ
    dof rx
    limits (-10.0 170.0)
 end
 begin
     id 9 
     name rfoot
     direction -0.137064 -0.37658 0.916188   
     length 2.22351  
     axis -90 1.13533e-015 -20   XYZ
    dof rx rz
    limits (-45.0 90.0)
           (-20.0 70.0)
  end
  begin
     id 10 
     name rtoes
     direction -0.000784077 -0.00289101 0.999996   
     length 1.09522   
     axis -90 1.13533e-015 -20   XYZ
    dof rx
    limits (-90.0 20.0)
  end
  begin
     id 11 
     name lowerback
     direction -0.0176242 0.984912 -0.172157   
     length 1.65301   
     axis 0 -0 0   XYZ
    dof rx ry rz
    limits (-20.0 45.0)
           (-30.0 30.0)
           (-30.0 30.0)
  end
  begin
     id 12 
     name upperback
     direction -0.00218128 0.998776 -0.0494072   
     length 1.67776   
     axis 0 -0 0   XYZ
    dof rx ry rz
    limits (-20.0 45.0)
           (-30.0 30.0)
           (-30.0 30.0)
  end
  begin
     id 13 
     name thorax
     direction 0.00544186 0.999658 0.0255711   
     length 1.72293   
     axis 0 -0 0   XYZ
    dof rx ry rz
    limits (-20.0 45.0)
           (-30.0 30.0)
           (-30.0 30.0)
  end
  begin
     id 14 
     name lowerneck
     direction -0.105325 0.983841 0.144785   
     length 2.14226   
     axis 0 -0 0   XYZ
    dof rx ry rz
    limits (-20.0 45.0)
           (-30.0 30.0)
           (-30.0 30.0)
  end
  begin
     id 15 
     name upperneck
     direction 0.0547957 0.988053 -0.144041   
     length 2.17508   
     axis 0 -0 0   XYZ
    dof rx ry rz
    limits (-20.0 45.0)
           (-30.0 30.0)
           (-30.0 30.0)
  end
  begin
     id 16
     name head
     direction 0.0247488 0.997534 -0.0656813  
     length 2.20048  
     axis 0 -0 0   XYZ
    dof rx ry rz
    limits (-20.0 45.0)
           (-30.0 30.0)
           (-30.0 30.0)
  end
  begin
     id 17 
     name lclavicle
     direction 0.820559 0.567247 -0.0701026  
     length 4.09615  
     axis 0 -0 0   XYZ
    dof ry rz
    limits (-20.0 10.0)
           (0.0 20.0)
  end
  begin
     id 18 
     name lhumerus
     direction 0.999977 -0.0067566 -9.96392e-005   
     length 4.59333   
     axis -180 -30 -90   XYZ
    dof rx ry rz
    limits (-60.0 90.0)
           (-90.0 90.0)
           (-90.0 90.0)
  end
  begin
     id 19
     name lradius
     direction 1 -4.48982e-011 -2.53425e-027   
     length 2.81151   
     axis -180 -30 -90   XYZ
    dof rx
    limits (-10.0 170.0)
  end
  begin
     id 20
     name lwrist
     direction 1 -4.48939e-011 -7.39254e-028   
     length 1.40576   
     axis 2.56395e-016 90 90   XYZ
    dof ry
    limits (-180.0 0.0)
 end
  begin
     id 21 
     name lhand
     direction 1 -4.48939e-011 -1.47851e-027   
     length 0.895651   
     axis 9.43423e-016 90 90   XYZ
    dof rx rz
    limits (-90.0 90.0)
           (-45.0 45.0)
  end
  begin
     id 22 
     name lfingers
     direction 1 -4.48978e-011 -2.95702e-027   
     length 0.722097   
     axis 1.88685e-015 90 90   XYZ
    dof rx
    limits (0.0 90.0)
  end
  begin
     id 23
     name lthumb
     direction 0.707107 -6.34931e-011 0.707107   
     length 1.03679   
     axis -90 45 -9.86935e-015   XYZ
    dof rx rz
    limits (-45.0 45.0)
           (-45.0 45.0)
  end
  begin
     id 24 
     name rclavicle
     direction -0.831414 0.553102 -0.0531864   
     length 4.24872  
     axis 0 -0 0   XYZ 
    dof ry rz
    limits (-10.0 20.0)
           (-20.0 0.0)
  end
  begin
     id 25 
     name rhumerus
     direction -0.999916 -0.000939607 0.0129331  
     length 4.74834   
     axis -180 30 90   XYZ
    dof rx ry rz
    limits (-90.0 60.0)
           (-90.0 90.0)
           (-90.0 90.0)
  end
  begin
     id 26 
     name rradius
     direction -1 -4.48956e-011 -1.31752e-027   
     length 2.79907   
     axis -180 30 90   XYZ
    dof rx
    limits (-10.0 170.0)
  end
  begin
     id 27 
     name rwrist
     direction -1 -4.4897e-011 -7.39254e-028   
     length 1.39954   
     axis 2.56395e-016 -90 -90   XYZ
    dof ry
    limits (-180.0 0.0)
  end
  begin
     id 28
     name rhand
     direction -0.999997 -0.00250697 0.000800838   
     length 0.953304   
     axis 9.43423e-016 -90 -90   XYZ
    dof rx rz
    limits (-90.0 90.0)
           (-45.0 45.0)
  end
  begin
     id 29
     name rfingers
     direction -1 -4.48954e-011 -2.95702e-027   
     length 0.763342   
     axis 1.88685e-015 -90 -90   XYZ
    dof rx
    limits (0.0 90.0)
  end
  begin
     id 30
     name rthumb
     direction -0.709701 -0.00217037 0.7045   
     length 1.10115   
     axis -90 -45 9.86935e-015   XYZ
    dof rx rz
    limits (-45.0 45.0)
           (-45.0 45.0)
  end
:hierarchy
  begin
    root lhipjoint rhipjoint lowerback
    lhipjoint lfemur
    lfemur ltibia
    ltibia lfoot
    lfoot ltoes
    rhipjoint rfemur
    rfemur rtibia
    rtibia rfoot
    rfoot rtoes
    lowerback upperback
    upperback thorax
    thorax lowerneck lclavicle rclavicle
    lowerneck upperneck
    upperneck head
    lclavicle lhumerus
    lhumerus lradius
    lradius lwrist
    lwrist lhand lthumb
    lhand lfingers
    rclavicle rhumerus
    rhumerus rradius
    rradius rwrist
    rwrist rhand rthumb
    rhand rfingers
  end

#!OML:ASF G:\ViconDB\ViconDB\414\test\team2\shane.ASF
:FULLY-SPECIFIED
:DEGREES
16
root 2.60183 16.132 -30.6473 -4.74617 -3.87665 -4.01632
lowerback 7.54011 5.70293 6.52881
upperback 3.85218 8.00552 -2.41275
thorax 1.06705 4.18257 -6.58655
lowerneck -13.9188 -9.90283 -10.0533
upperneck 17.3431 -15.0641 16.6776
head 9.92114 -6.16632 5.3582
rclavicle -6.30147e-014 2.38542e-014
rhumerus -14.8152 27.1427 -96.5755
rradius 42.8264
rwrist 30.2144
rhand -32.2669 -13.578
rfingers 7.12502
rthumb -5.50647 -43.4864
lclavicle -6.30147e-014 2.38542e-014
lhumerus -49.4779 -18.3772 88.5757
lradius 27.1183
lwrist -10.9046
lhand -38.8286 7.03358
lfingers 7.12502
lthumb -11.8384 36.6789
rfemur 33.6568 -7.64748 20.6161
rtibia 4.77083e-014
rfoot -20.5592 -1.68633
rtoes -19.9194
lfemur -29.1141 9.13781 -11.0643
ltibia 41.5059
lfoot -28.1169 -11.2805
ltoes -12.5599
17
root 2.63492 16.0994 -30.4933 -4.65712 -4.06545 -3.92243
lowerback 7.38876 5.86419 6.51228
upperback 3.79817 8.21222 -2.50577
thorax 1.13962 4.2892 -6.66353
lowerneck -13.7584 -10.0077 -10.1464
upperneck 17.2871 -15.2151 16.7602
head 9.91015 -6.2453 5.38157
rclavicle 3.76697e-014 1.19271e-014
rhumerus -15.2901 27.5054 -96.3588
rradius 42.3533
rwrist 30.3445
rhand -32.2916 -13.6184
rfingers 7.12502
rthumb -5.53027 -43.5262
lclavicle 3.76697e-014 1.19271e-014
lhumerus -49.0912 -17.7098 88.4566
lradius 26.7989
lwrist -11.1028
lhand -38.7254 6.55971
lfingers 7.12502
lthumb -11.7388 36.2108
rfemur 34.136 -7.28557 20.2581
rtibia -7.63333e-014
rfoot -20.5324 -1.34874
rtoes -20.5874
lfemur -28.9872 8.45553 -11.1752
ltibia 42.3507
lfoot -27.7381 -12.1005
ltoes -12.0523
18
root 2.66798 16.0733 -30.3397 -4.54072 -4.09983 -3.88754
lowerback 7.37789 5.95435 6.59849
upperback 3.67158 8.33969 -2.64611
thorax 1.06924 4.35128 -6.86725
lowerneck -13.7411 -10.1095 -10.1363
upperneck 17.4483 -15.3996 16.7922
head 9.99453 -6.32107 5.36325
rclavicle -1.20165e-013 1.19271e-014
rhumerus -15.8938 27.5944 -96.3317
rradius 41.7701
rwrist 30.5354
rhand -32.4061 -13.5724
rfingers 7.12502
rthumb -5.64081 -43.4773
lclavicle -1.20165e-013 1.19271e-014
lhumerus -48.711 -17.1293 88.3486
lradius 26.5108
lwrist -11.6406
lhand -38.4384 7.59094
lfingers 7.12502
lthumb -11.4621 37.2576
rfemur 34.5498 -7.09377 19.9726
rtibia 6.99722e-014
rfoot -20.3457 -1.12306
rtoes -21.5625
lfemur -29.12 7.88565 -11.3151
ltibia 43.2858
lfoot -27.2211 -13.0434
ltoes -11.367
19
root 2.70629 16.055 -30.184 -4.41827 -3.91821 -3.8077
lowerback 7.35874 5.9593 6.68024
upperback 3.53154 8.35295 -2.76
thorax 0.965587 4.35329 -7.03939
lowerneck -13.4767 -10.2057 -10.38
upperneck 17.39 -15.5524 17.0382
head 9.99319 -6.40178 5.47388
rclavicle -6.99722e-014 6.36111e-015
rhumerus -16.5838 27.4977 -96.3039
rradius 41.0129
rwrist 31.1402
rhand -32.1247 -13.3413
rfingers 7.12502
rthumb -5.36908 -43.2533
lclavicle -6.99722e-014 6.36111e-015
lhumerus -48.4364 -16.404 88.3041
lradius 26.3103
lwrist -11.5207
lhand -38.3094 6.74677
lfingers 7.12502
lthumb -11.3377 36.4203
rfemur 34.9912 -7.09611 19.6005
rtibia -3.49861e-014
rfoot -20.0603 -0.821009
rtoes -21.8717
lfemur -29.3858 7.02624 -11.5157
ltibia 44.2773
lfoot -26.3694 -13.1296
ltoes -10.3521
20
root 2.73909 16.0332 -30.0196 -4.3225 -4.0857 -3.68072
lowerback 7.18828 6.0825 6.58553
upperback 3.4993 8.50236 -2.83391
thorax 1.04872 4.43039 -7.04732
lowerneck -13.4583 -10.301 -10.6874
upperneck 17.4534 -15.7115 17.3534
head 10.0965 -6.46478 5.6123
rclavicle 1.05058e-013 -2.14687e-014
rhumerus -17.1161 27.5146 -96.2121
rradius 40.0978
rwrist 31.4711
rhand -32.0376 -13.3927
rfingers 7.12502
rthumb -5.28504 -43.3068
lclavicle 1.05058e-013 -2.14687e-014
lhumerus -47.9051 -15.6395 88.3371
lradius 26.0296
lwrist -11.5938
lhand -37.7572 7.53716
lfingers 7.12502
lthumb -10.8051 37.2392
rfemur 35.4357 -6.7578 19.2267
rtibia -1.20861e-013
rfoot -19.5987 -0.585866
rtoes -22.7294
lfemur -29.47 6.35817 -11.7186
ltibia 45.3144
lfoot -25.932 -12.3346
ltoes -9.91404
21
root 2.77708 16.0127 -29.8589 -4.29231 -3.94739 -3.60709
lowerback 7.17352 6.0995 6.54869
upperback 3.47469 8.52249 -2.8956
thorax 1.03882 4.43999 -7.09186
lowerneck -13.6497 -10.4347 -10.7585
upperneck 17.719 -15.9249 17.369
head 10.2699 -6.54425 5.58995
rclavicle 7.15625e-015 1.59028e-014
rhumerus -17.7309 27.33 -96.2335
rradius 39.119
rwrist 31.2638
rhand -32.1144 -13.0698
rfingers 7.12502
rthumb -5.35918 -42.982
lclavicle 7.15625e-015 1.59028e-014
lhumerus -47.6451 -15.1182 88.5239
lradius 26.2424
lwrist -11.1657
lhand -37.3063 7.70257
lfingers 7.12502
lthumb -10.3701 37.4269
rfemur 35.9172 -6.7177 18.8648
rtibia -5.08889e-014
rfoot -18.9448 -0.315353
rtoes -23.0957
lfemur -29.5373 6.08273 -11.9778
ltibia 46.2901
lfoot -25.4241 -12.3033
ltoes -8.91934
22
root 2.81511 15.997 -29.6962 -4.32289 -3.8473 -3.56324
lowerback 7.1201 6.12802 6.51505
upperback 3.52889 8.55523 -2.8901
thorax 1.12469 4.46102 -7.05693
lowerneck -13.854 -10.5588 -10.9278
upperneck 17.9146 -16.1029 17.4401
head 10.4309 -6.61074 5.60764
rclavicle 3.19049e-014 -1.74931e-014
rhumerus -18.2103 26.6236 -96.068
rradius 37.9304
rwrist 31.9228
rhand -31.9103 -12.8108
rfingers 7.12502
rthumb -5.16214 -42.7279
lclavicle 3.19049e-014 -1.74931e-014
lhumerus -46.8102 -14.2529 88.6112
lradius 25.5713
lwrist -10.6841
lhand -37.6252 6.87294
lfingers 7.12502
lthumb -10.6778 36.5816
rfemur 36.5006 -6.63974 18.5306
rtibia 6.36111e-015
rfoot -18.0411 -0.0874585
rtoes -24.315
lfemur -29.4239 5.47063 -12.137
ltibia 47.1426
lfoot -24.9094 -12.0845
ltoes -8.45117
23
root 2.8509 15.9815 -29.5334 -4.25712 -3.68263 -3.92359
lowerback 7.14485 6.13808 6.85883
upperback 3.4625 8.59301 -2.86102
thorax 1.09675 4.48303 -7.2233
lowerneck -14.021 -10.6975 -10.8572
upperneck 18.0657 -16.3548 17.5193
head 10.562 -6.69733 5.57552
rclavicle -2.3059e-014 5.56597e-015
rhumerus -18.9075 25.7359 -96.1122
rradius 36.8713
rwrist 32.4039
rhand -31.7447 -12.8846
rfingers 7.12502
rthumb -5.00224 -42.8056
lclavicle -2.3059e-014 5.56597e-015
lhumerus -46.4759 -14.0548 88.9261
lradius 25.5487
lwrist -10.4602
lhand -37.1864 7.80738
lfingers 7.12502
lthumb -10.2545 37.5374
rfemur 37.001 -6.67183 18.6279
rtibia -2.8625e-014
rfoot -16.9655 0.41711
rtoes -24.8513
lfemur -29.3751 5.38115 -11.9174
ltibia 47.7868
lfoot -24.4 -12.6238
ltoes -8.28773
24
root 2.89154 15.9657 -29.3539 -4.60167 -3.85969 -3.49162
lowerback 7.17399 6.24704 6.49269
upperback 3.69144 8.71526 -3.02154
thorax 1.31186 4.55754 -7.17806
lowerneck -14.278 -10.7767 -10.7395
upperneck 18.0232 -16.5133 17.6835
head 10.6313 -6.73256 5.57543
rclavicle 1.15295e-014 2.8625e-014
rhumerus -19.4451 25.0629 -96.1461
rradius 35.8052
rwrist 32.7875
rhand -31.4493 -12.8612
rfingers 7.12502
rthumb -4.71697 -42.7887
lclavicle 1.15295e-014 2.8625e-014
lhumerus -45.7735 -13.5127 88.9555
lradius 25.3841
lwrist -10.3658
lhand -37.0577 7.62772
lfingers 7.12502
lthumb -10.1303 37.3639
rfemur 37.854 -6.21891 17.8245
rtibia -6.67916e-014
rfoot -15.6262 0.839122
rtoes -25.971
lfemur -28.5576 5.3793 -12.5778
ltibia 48.2073
lfoot -23.7729 -12.5901
ltoes -8.26583
25
root 2.92741 15.9744 -29.1715 -4.71903 -3.95679 -3.50265
lowerback 7.06608 6.27719 6.38842
upperback 3.77347 8.7426 -2.97141
thorax 1.43723 4.57537 -7.04819
lowerneck -14.4015 -10.7929 -10.8167
upperneck 18.0305 -16.545 17.8117
head 10.6851 -6.73252 5.6245
rclavicle 9.14409e-015 3.97569e-015
rhumerus -20.2354 24.5119 -96.1988
rradius 34.8073
rwrist 32.8788
rhand -31.2366 -13.0634
rfingers 7.12502
rthumb -4.5116 -42.9953
lclavicle 9.14409e-015 3.97569e-015
lhumerus -45.4533 -13.1905 89.428
lradius 25.5897
lwrist -9.39453
lhand -37.1962 7.23945
lfingers 7.12502
lthumb -10.2639 36.969
rfemur 38.4265 -5.91337 17.5304
rtibia 6.36111e-015
rfoot -13.8296 1.33986
rtoes -27.7216
lfemur -27.9284 5.26323 -12.6261
ltibia 48.4584
lfoot -22.5194 -12.733
ltoes -5.52782
26
root 2.95781 15.9833 -28.9976 -4.68645 -3.93089 -3.82598
lowerback 7.02543 6.20779 6.504
upperback 3.77179 8.65399 -2.84277
thorax 1.43949 4.53016 -6.9711
lowerneck -14.5555 -10.8187 -10.8883
upperneck 18.0207 -16.59 17.9496
head 10.7417 -6.7363 5.67213
rclavicle -6.97734e-014 2.3059e-014
rhumerus -21.0519 23.7185 -96.2732
rradius 33.8016
rwrist 33.2712
rhand -30.748 -13.0795
rfingers 7.12502
rthumb -4.03976 -43.0209
lclavicle -6.97734e-014 2.3059e-014
lhumerus -45.0003 -12.5974 89.6584
lradius 25.4963
lwrist -9.41136
lhand -37.1282 7.58291
lfingers 7.12502
lthumb -10.1983 37.3157
rfemur 38.8124 -5.80345 17.6155
rtibia 7.95139e-014
rfoot -11.5767 2.00118
rtoes -28.1338
lfemur -27.4272 5.36416 -12.3906
ltibia 48.5781
lfoot -22.2458 -12.3784
ltoes -4.44634
27
root 2.99584 15.9987 -28.8097 -4.79715 -4.13373 -3.56156
lowerback 7.03368 6.23847 6.19528
upperback 3.7401 8.67717 -2.9685
thorax 1.3777 4.5343 -6.93756
lowerneck -14.504 -10.7458 -10.7929
upperneck 17.9494 -16.5587 18.1783
head 10.7188 -6.70009 5.74783
rclavicle 7.196e-014 -9.54166e-015
rhumerus -21.8002 22.4939 -96.4978
rradius 32.4973
rwrist 33.9765
rhand -30.8356 -13.3909
rfingers 7.12502
rthumb -4.12436 -43.3307
lclavicle 7.196e-014 -9.54166e-015
lhumerus -44.9684 -12.6588 90.2198
lradius 25.7886
lwrist -8.97243
lhand -37.1543 7.42286
lfingers 7.12502
lthumb -10.2235 37.1544
rfemur 39.2399 -5.35967 17.0571
rtibia -7.63333e-014
rfoot -8.86131 2.66831
rtoes -28.6587
lfemur -26.5881 5.70759 -12.7991
ltibia 48.6168
lfoot -22.3635 -12.0666
ltoes -3.6453
28
root 3.03596 16.0228 -28.6164 -4.95564 -4.42268 -3.4631
lowerback 6.95332 6.24568 6.05464
upperback 3.83658 8.67389 -2.99441
thorax 1.50486 4.53785 -6.86979
lowerneck -14.6485 -10.7008 -10.783
upperneck 17.902 -16.5349 18.3948
head 10.7503 -6.66177 5.8244
rclavicle 4.57205e-014 3.57812e-014
rhumerus -22.4781 21.5511 -96.6036
rradius 31.2841
rwrist 34.4185
rhand -30.7086 -13.6568
rfingers 7.12502
rthumb -4.00175 -43.599
lclavicle 4.57205e-014 3.57812e-014
lhumerus -44.6952 -12.4863 90.6417
lradius 26.1259
lwrist -8.14679
lhand -37.0279 7.09804
lfingers 7.12502
lthumb -10.1016 36.8356
rfemur 36.6713 -4.84099 16.6916
rtibia 6.49771
rfoot -9.11097 2.9965
rtoes -29.1406
lfemur -25.5922 5.90002 -13.0231
ltibia 48.5877
lfoot -22.5455 -11.7464
ltoes -3.02341
29
root 3.07768 16.0526 -28.4263 -4.96066 -4.62992 -3.52866
lowerback 6.82176 6.16725 6.04019
upperback 3.8401 8.56149 -2.94174
thorax 1.5514 4.48122 -6.78876
lowerneck -14.8115 -10.5991 -10.7782
upperneck 18.0149 -16.4063 18.4185
head 10.8033 -6.58646 5.85458
rclavicle 4.57205e-014 3.57812e-014
rhumerus -22.4781 21.5511 -96.6036
rradius 31.2841
rwrist 34.4185
rhand -30.7086 -13.6568
rfingers 7.12502
rthumb -4.00175 -43.599
lclavicle -7.77248e-014 5.24792e-014
lhumerus -44.5677 -12.5706 91.3489
lradius 26.4676
lwrist -6.88801
lhand -37.1343 7.12244
lfingers 7.12502
lthumb -10.2042 36.855
rfemur 32.9253 -4.42045 16.4579
rtibia 15.0345
rfoot -9.91555 3.1602
rtoes -29.6696
lfemur -24.7402 5.88297 -13.1079
ltibia 48.5105
lfoot -23.0581 -11.1875
ltoes -3.2933
